<?xml version="1.0" standalone="no"?>
<!DOCTYPE svg PUBLIC "-//W3C//DTD SVG 20010904//EN"
 "http://www.w3.org/TR/2001/REC-SVG-20010904/DTD/svg10.dtd">
<svg version="1.0" xmlns="http://www.w3.org/2000/svg"
 width="225.000000pt" height="225.000000pt" viewBox="0 0 225.000000 225.000000"
 preserveAspectRatio="xMidYMid meet">
<metadata>
Created by potrace 1.14, written by Peter Selinger 2001-2017
</metadata>
<g transform="translate(0.000000,225.000000) scale(0.100000,-0.100000)"
fill="#000000" stroke="none">
<path d="M982 2168 c-5 -7 -12 -22 -14 -33 -3 -17 -11 -20 -60 -20 -51 -1 -58
2 -68 24 l-11 25 -16 -32 c-18 -37 -19 -37 -66 -17 -46 19 -45 19 -39 -10 2
-15 0 -25 -8 -25 -7 0 -6 -6 4 -16 18 -17 20 -30 7 -38 -5 -3 -12 1 -15 10 -3
8 -10 12 -16 9 -5 -3 -10 -2 -10 2 0 5 -7 18 -16 29 -15 19 -16 19 -9 -1 18
-55 24 -118 14 -137 -8 -16 -8 -23 2 -30 10 -6 6 -7 -11 -2 -21 6 -23 5 -12
-8 10 -12 7 -20 -14 -43 -20 -21 -23 -30 -13 -36 11 -6 10 -9 -3 -14 -9 -4
-14 -13 -11 -21 3 -8 -1 -14 -11 -14 -9 0 -16 -8 -16 -18 0 -10 -4 -22 -9 -27
-5 -6 -12 -45 -15 -88 -6 -63 -4 -77 6 -72 7 4 -1 -6 -19 -22 -36 -31 -53 -93
-34 -117 9 -11 9 -25 2 -53 -12 -46 -5 -82 43 -233 52 -162 55 -165 55 -97 1
55 16 80 23 35 2 -12 16 -29 31 -38 26 -14 29 -14 47 10 15 20 21 23 31 12 22
-21 58 -14 71 13 11 24 12 25 37 9 15 -11 26 -13 28 -7 2 6 13 9 23 6 17 -4
20 0 20 24 0 32 -14 48 -71 80 -38 22 -77 24 -190 8 l-55 -7 -13 93 c-12 89
-11 99 12 187 29 108 44 130 87 124 18 -3 30 0 30 7 0 6 5 11 10 11 6 0 10 -7
10 -15 0 -19 14 -19 33 0 8 8 26 12 40 10 15 -3 27 0 30 9 3 7 27 16 55 19 27
3 64 14 83 24 76 42 302 54 381 20 46 -19 56 -38 71 -132 7 -47 16 -75 24 -75
7 0 22 -18 33 -40 12 -23 27 -43 35 -47 8 -3 13 -9 10 -13 -3 -5 2 -16 11 -25
11 -10 14 -25 11 -43 -6 -28 25 -181 45 -219 14 -27 43 -30 57 -5 6 9 11 11
11 5 0 -14 50 -18 50 -5 0 4 -9 16 -21 25 -19 17 -19 20 -6 35 9 9 18 29 22
44 6 21 14 28 46 33 44 8 49 32 5 27 -34 -4 -34 15 0 30 25 12 26 15 21 75 -2
35 -1 60 4 57 5 -3 9 6 9 20 0 16 5 25 13 23 8 -1 11 11 9 41 -1 23 1 41 5 40
5 -2 10 -1 12 2 6 7 -26 108 -45 142 -8 14 -14 35 -14 45 0 10 -14 33 -30 52
-40 43 -63 88 -48 93 15 5 -25 30 -92 56 -30 12 -69 35 -85 50 -59 55 -102 73
-154 66 -40 -5 -49 -3 -55 11 -4 10 -12 15 -22 11 -14 -5 -237 55 -274 74 -8
4 -14 17 -13 29 3 24 0 26 -15 9z"/>
<path d="M1123 1242 c-51 -7 -58 -56 -14 -101 28 -29 36 -32 52 -23 15 10 23
8 39 -8 20 -20 42 -18 72 7 11 10 18 11 23 4 10 -17 52 -13 59 6 10 25 -24 40
-128 59 -38 7 -39 7 -15 19 13 7 48 16 77 20 29 4 51 9 48 12 -6 6 -178 10
-213 5z"/>
<path d="M1542 613 c-12 -13 -22 -26 -22 -28 0 -15 -117 -109 -189 -152 -155
-95 -164 -98 -275 -95 -54 1 -113 7 -132 14 -48 17 -50 6 -10 -38 36 -40 43
-68 27 -123 -6 -22 -9 -18 -30 32 -29 68 -47 79 -59 34 -7 -29 -15 -34 -74
-53 -36 -12 -92 -35 -124 -52 -33 -17 -118 -46 -190 -66 -71 -19 -155 -46
-185 -60 l-54 -24 322 -1 323 -1 -5 77 c-5 78 -5 78 8 33 8 -25 21 -60 31 -78
14 -28 22 -32 55 -32 l39 0 -20 58 c-11 31 -25 62 -30 69 -9 11 -1 83 9 83 12
0 53 -52 53 -66 0 -8 7 -17 16 -21 19 -7 94 14 95 27 1 6 2 14 3 18 1 11 64
82 72 82 3 0 23 14 44 30 21 17 50 36 65 44 26 14 121 101 160 147 53 64 85
109 95 134 14 37 9 39 -18 8z"/>
<path d="M1687 399 c14 -47 14 -54 -3 -92 -11 -23 -33 -60 -50 -82 -17 -23
-47 -66 -66 -96 -20 -29 -49 -67 -67 -83 -17 -17 -31 -33 -31 -38 0 -4 174 -8
388 -8 l387 1 -140 72 c-223 116 -278 161 -350 292 -32 59 -54 85 -70 85 -10
0 -9 -12 2 -51z"/>
</g>
</svg>
